<?xml version="1.0" encoding="UTF-8" standalone="no"?>
<!-- Created with Inkscape (http://www.inkscape.org/) -->

<svg
   xmlns:dc="http://purl.org/dc/elements/1.1/"
   xmlns:cc="http://creativecommons.org/ns#"
   xmlns:rdf="http://www.w3.org/1999/02/22-rdf-syntax-ns#"
   xmlns:svg="http://www.w3.org/2000/svg"
   xmlns="http://www.w3.org/2000/svg"
   xmlns:sodipodi="http://sodipodi.sourceforge.net/DTD/sodipodi-0.dtd"
   xmlns:inkscape="http://www.inkscape.org/namespaces/inkscape"
   width="25.772589mm"
   height="19.563665mm"
   viewBox="0 0 25.772589 19.563665"
   version="1.1"
   id="svg8"
   inkscape:version="0.92.2 (30a58d1, 2017-08-07)"
   sodipodi:docname="logo.svg">
  <defs
     id="defs2" />
  <sodipodi:namedview
     id="base"
     pagecolor="#ffffff"
     bordercolor="#666666"
     borderopacity="1.0"
     inkscape:pageopacity="0.0"
     inkscape:pageshadow="2"
     inkscape:zoom="11.37387"
     inkscape:cx="48.704105"
     inkscape:cy="36.970706"
     inkscape:document-units="mm"
     inkscape:current-layer="layer1"
     showgrid="false"
     inkscape:snap-others="false"
     inkscape:window-width="1680"
     inkscape:window-height="1026"
     inkscape:window-x="0"
     inkscape:window-y="24"
     inkscape:window-maximized="1"
     fit-margin-top="0"
     fit-margin-left="0"
     fit-margin-right="0"
     fit-margin-bottom="0"
     inkscape:object-nodes="false" />
  <metadata
     id="metadata5">
    <rdf:RDF>
      <cc:Work
         rdf:about="">
        <dc:format>image/svg+xml</dc:format>
        <dc:type
           rdf:resource="http://purl.org/dc/dcmitype/StillImage" />
        <dc:title></dc:title>
      </cc:Work>
    </rdf:RDF>
  </metadata>
  <g
     inkscape:label="Layer 1"
     inkscape:groupmode="layer"
     id="layer1"
     transform="translate(-91.473485,-71.689679)">
    <path
       style="fill:#00ccff;stroke:none;stroke-width:0.36650831"
       d="m 395.08398,270.95312 c -26.53742,0 -48.05036,13.44538 -48.05078,30.03126 0.0184,7.07651 4.03446,13.92165 11.33985,19.32812 l -12.64649,24.58203 22.58008,-16.2207 2.51172,-1.80469 c 7.35586,2.70444 15.73144,4.13565 24.26562,4.14648 26.53741,0 48.05035,-13.44536 48.05079,-30.03124 -4.2e-4,-16.58589 -21.51337,-30.03126 -48.05079,-30.03126 z"
       transform="scale(0.26458333)"
       id="path10"
       inkscape:connector-curvature="0"
       sodipodi:nodetypes="scccccccs" />
    <path
       inkscape:connector-curvature="0"
       id="path84"
       style="font-style:normal;font-variant:normal;font-weight:normal;font-stretch:normal;font-size:10.58333302px;line-height:1.25;font-family:Billenia;-inkscape-font-specification:'Billenia, Normal';font-variant-ligatures:normal;font-variant-caps:normal;font-variant-numeric:normal;font-feature-settings:normal;text-align:start;letter-spacing:0px;word-spacing:0px;writing-mode:lr-tb;text-anchor:start;fill:#000000;fill-opacity:1;stroke:none;stroke-width:0.26458332"
       d="m 107.47049,84.381133 q -0.0847,0 -0.21167,-0.01058 -0.127,0 -0.24341,-0.03175 -0.10584,-0.03175 -0.1905,-0.105833 -0.0741,-0.0635 -0.0741,-0.179917 v -0.07408 l 0.14817,-0.08467 q 0.0847,-0.1905 0.15875,-0.34925 0.0741,-0.148166 0.16933,-0.28575 0.0952,-0.126999 0.23284,-0.243416 0.13758,-0.116417 0.33866,-0.22225 0.0212,-0.01058 0.0847,-0.03175 0.0635,-0.02117 0.0635,-0.05292 l -0.0423,-0.0635 q 0.0423,-0.359833 0.15875,-0.677333 0.11641,-0.328083 0.254,-0.635 0.14816,-0.306917 0.29633,-0.60325 0.15875,-0.296333 0.28575,-0.613833 l -0.20108,-0.04233 0.0106,-0.116416 q 0.17992,-0.105834 0.27517,-0.232834 0.10583,-0.137583 0.26458,-0.243416 0.0212,-0.04233 0.0423,-0.09525 0.0318,-0.0635 0.0318,-0.116417 0,-0.15875 0.0635,-0.306917 0.0635,-0.148166 0.14817,-0.28575 -0.0106,-0.08467 0.0318,-0.211666 0.0529,-0.127 0.127,-0.254 0.0741,-0.137584 0.14817,-0.254 0.0741,-0.127 0.11641,-0.201084 v 0.01058 q 0.0741,-0.127 0.15875,-0.328084 0.0847,-0.201083 0.1905,-0.391583 0.10584,-0.1905 0.23284,-0.3175 0.13758,-0.137583 0.29633,-0.137583 0.0847,0 0.15875,0.05292 0.0741,0.04233 0.0741,0.137584 0,0.116416 -0.0741,0.211666 -0.0741,0.09525 -0.14817,0.169334 l 0.0529,0.05292 q -0.0318,0.04233 -0.0847,0.15875 -0.0423,0.105834 -0.10583,0.22225 -0.0529,0.105834 -0.10583,0.201084 -0.0529,0.09525 -0.0953,0.105833 -0.0318,0.137583 -0.0847,0.264583 -0.0529,0.127 -0.10583,0.254 l -0.0741,0.05292 -0.0318,0.15875 q 0.0212,-0.01058 0.0212,0.03175 0.0106,0.04233 0.0106,0.05292 l -0.30691,0.53975 0.0106,0.0635 q 0.254,-0.04233 0.65617,-0.243417 0.40216,-0.211667 0.86783,-0.518583 0.46567,-0.306917 0.93133,-0.677334 0.46567,-0.370416 0.84667,-0.751416 0.381,-0.381 0.61383,-0.73025 0.24342,-0.34925 0.24342,-0.624417 0,-0.127 -0.0423,-0.243417 -0.0423,-0.127 -0.127,-0.22225 -0.0741,-0.105833 -0.17992,-0.169333 -0.10583,-0.0635 -0.23283,-0.0635 -0.79375,0 -1.50284,0.201083 -0.70908,0.1905 -1.30175,0.582084 -0.59266,0.391583 -1.05833,0.963083 -0.45508,0.5715 -0.74083,1.3335 l -0.0423,0.201083 -0.11641,0.359834 q -0.0212,0.137583 -0.0952,0.22225 -0.0741,0.07408 -0.15875,0.116416 -0.0741,0.03175 -0.14817,0.03175 -0.0741,-0.01058 -0.0847,-0.05292 v 0.01058 q -0.0423,0.04233 -0.11641,0.07408 -0.0741,0.02117 -0.0741,0.08467 l -0.13758,0.01058 -0.0741,0.05292 -0.10584,-0.455083 -0.0106,0.01058 -0.0317,-0.1905 q 0,-0.211667 0.0952,-0.4445 0.0953,-0.232833 0.20108,-0.423333 -0.0212,0.01058 -0.0212,-0.03175 0,-0.05292 0,-0.0635 0.0423,-0.07408 0.127,-0.201084 0.0952,-0.137583 0.20108,-0.275166 0.10583,-0.137584 0.20108,-0.243417 0.10584,-0.105833 0.17992,-0.116417 0.0318,-0.04233 0.11642,-0.137583 0.0847,-0.105833 0.17991,-0.201083 0.0952,-0.105834 0.17992,-0.179917 0.0952,-0.08467 0.14817,-0.08467 0.13758,-0.148166 0.27516,-0.275166 0.14817,-0.127 0.32809,-0.22225 l 0.0423,-0.0635 q 0.0635,-0.04233 0.17992,-0.137584 0.11641,-0.09525 0.254,-0.179916 0.13758,-0.09525 0.254,-0.15875 0.127,-0.07408 0.20108,-0.07408 0.0847,-0.09525 0.3175,-0.1905 0.24342,-0.105833 0.508,-0.1905 0.27517,-0.08467 0.49742,-0.137583 0.23283,-0.0635 0.29633,-0.08467 0.0318,-0.02117 0.0847,0.03175 0.27516,0 0.55033,-0.03175 0.27517,-0.04233 0.53975,-0.0635 -0.0106,-0.02117 0.0318,-0.03175 0.0423,-0.01058 0.0635,-0.01058 l 0.22225,0.09525 0.0741,-0.02117 q 0.0423,0.02117 0.13759,0.09525 0.0952,0.0635 0.20108,0.137584 0.11642,0.07408 0.20108,0.137583 0.0952,0.05292 0.11642,0.05292 0.0529,0.179916 0.0741,0.338666 0.0212,0.15875 0.0423,0.338667 l -0.0741,0.09525 q 0,0.07408 -0.0423,0.232833 -0.0318,0.15875 -0.0953,0.328084 -0.0529,0.169333 -0.127,0.306916 -0.0741,0.127 -0.14817,0.15875 -0.0318,0.09525 -0.10583,0.201084 -0.0741,0.09525 -0.16933,0.1905 -0.0847,0.09525 -0.17992,0.1905 -0.0953,0.08467 -0.16933,0.148166 v -0.01058 q -0.0318,0.03175 -0.10584,0.09525 -0.0741,0.0635 -0.15875,0.137583 -0.0741,0.0635 -0.14816,0.116417 -0.0741,0.04233 -0.0952,0.04233 l -0.0318,-0.02117 q -0.1905,0.1905 -0.34925,0.370416 -0.15875,0.169334 -0.381,0.28575 h 0.0106 q -0.24342,0.148167 -0.47625,0.3175 -0.22225,0.15875 -0.4445,0.338667 0.0212,-0.02117 0.0529,0.03175 0.0423,0.05292 0.0847,0.05292 0.11642,0 0.24342,0.08467 0.127,0.07408 0.23283,0.201084 0.10584,0.116416 0.16934,0.264583 0.0635,0.137583 0.0635,0.264583 l -0.0212,0.03175 q 0.0212,0.211667 -0.0106,0.41275 -0.0212,0.201084 -0.0847,0.391584 0.30692,-0.07408 0.65617,-0.169334 0.34925,-0.105833 0.66675,-0.105833 0.14816,0 0.33866,0.05292 0.20109,0.04233 0.32809,0.127 l -0.0106,0.105833 q -0.0953,0.08467 -0.41275,0.201083 -0.30691,0.105834 -0.68791,0.211667 -0.37042,0.09525 -0.71967,0.179917 -0.33867,0.08467 -0.49742,0.116416 -0.0318,0.09525 -0.10583,0.1905 -0.0741,0.08467 -0.15875,0.137584 l -0.0106,0.09525 q -0.22225,0.201083 -0.39159,0.402166 -0.15875,0.201084 -0.39158,0.381 v -0.01058 q -0.0318,0.03175 -0.13758,0.116417 -0.10584,0.08467 -0.23284,0.179916 -0.11641,0.09525 -0.22225,0.15875 -0.10583,0.07408 -0.13758,0.07408 l -0.0635,-0.01058 q -0.30692,0.116417 -0.62442,0.306917 -0.30691,0.1905 -0.635,0.359833 -0.32808,0.179917 -0.66675,0.306917 -0.32808,0.127 -0.67733,0.127 z m 3.31258,-3.037417 q 0.17992,-0.0635 0.35984,-0.148166 0.17991,-0.08467 0.35983,-0.15875 0,-0.211667 0.0529,-0.41275 0.0529,-0.211667 0.0529,-0.423334 0,-0.296333 -0.16933,-0.402166 -0.16933,-0.105834 -0.4445,-0.105834 -0.24342,0 -0.48683,0.05292 -0.24342,0.05292 -0.48684,0.05292 -0.0847,0.07408 -0.1905,0.127 -0.0952,0.04233 -0.20108,0.08467 0,0.0635 -0.0423,0.116417 -0.0318,0.04233 -0.0847,0.07408 h 0.0106 q -0.0423,0.07408 -0.0741,0.179917 -0.0212,0.09525 -0.0741,0.148167 l -0.0529,0.01058 0.0106,0.01058 q -0.0529,0.105834 -0.15875,0.264584 -0.0953,0.148166 -0.16933,0.22225 l 0.0635,0.04233 q 0,0.02117 -0.0318,0.07408 -0.0212,0.05292 -0.0529,0.116417 -0.0318,0.0635 -0.0635,0.137583 -0.0318,0.07408 -0.0318,0.116417 0.0212,0.05292 -0.0106,0.15875 -0.0318,0.09525 -0.0847,0.211667 -0.0423,0.116416 -0.10583,0.22225 -0.0529,0.09525 -0.0847,0.137583 l 0.0106,0.09525 -0.0212,0.03175 q 0.0847,-0.05292 0.16933,-0.105833 0.0847,-0.0635 0.16934,-0.08467 l 0.0106,0.01058 q 0.0529,-0.02117 0.16933,-0.07408 0.11642,-0.0635 0.16934,-0.0635 0.0317,0 0.0317,0.03175 v 0.02117 q 0.10583,-0.05292 0.20108,-0.15875 0.10583,-0.116417 0.1905,-0.15875 0.0741,-0.03175 0.13758,-0.05292 0.0741,-0.03175 0.14817,-0.07408 l 0.0106,-0.02117 q 0.1905,-0.05292 0.40217,-0.137583 0.22225,-0.09525 0.40217,-0.179917 z m -0.53975,1.143 q 0.0847,-0.03175 0.20109,-0.116416 0.11641,-0.09525 0.23283,-0.201084 0.11642,-0.116416 0.22225,-0.22225 0.10583,-0.116416 0.16933,-0.1905 -0.508,0.169334 -0.99483,0.391584 -0.48683,0.22225 -0.9525,0.497416 -0.0318,0.02117 -0.1905,0.116417 -0.15875,0.08467 -0.33867,0.1905 -0.17991,0.105833 -0.32808,0.1905 -0.13758,0.08467 -0.13758,0.08467 -0.0423,0.05292 -0.0635,0.09525 -0.0106,0.04233 -0.0952,0.0635 l -0.0318,-0.01058 q -0.11642,0.07408 -0.22225,0.137583 -0.10584,0.07408 -0.1905,0.169334 l 0.0106,0.02117 q 0.0212,0 0.16933,-0.03175 0.14817,-0.02117 0.32809,-0.0635 0.1905,-0.04233 0.34925,-0.07408 0.16933,-0.03175 0.21166,-0.04233 0.0106,-0.02117 0.0741,-0.0635 0.0635,-0.04233 0.13758,-0.08467 0.0847,-0.03175 0.14817,-0.0635 0.0741,-0.03175 0.0741,-0.03175 0.0212,-0.03175 0.0741,-0.0635 0.0529,-0.03175 0.0953,-0.02117 0.0741,-0.116417 0.22225,-0.201084 0.14817,-0.08467 0.29634,-0.148166 0.15875,-0.07408 0.29633,-0.148167 0.14817,-0.08467 0.23283,-0.179917 z m 0.59267,-5.30225 v -0.01058 l -0.0106,-0.01058 0.0106,0.04233 z m -0.0106,-0.03175 q 0.0106,0 0,0.01058 0,0 0.0106,0 -0.0106,0 -0.0106,-0.01058 z" />
    <g
       id="g94"
       transform="translate(-0.20256222,-0.93513658)">
      <path
         d="m 95.362249,78.569387 -0.296334,-0.60325 q -0.01058,-0.02117 -0.03175,-0.04233 -0.01058,-0.03175 -0.01058,-0.05292 l 0.127,-0.264583 0.148167,-0.02117 q 0.02117,-0.04233 0.09525,-0.211667 0.08467,-0.179916 0.179916,-0.370416 0.105834,-0.1905 0.201084,-0.338667 0.09525,-0.148167 0.137583,-0.148167 l -0.02117,0.03175 q 0.03175,0 0.0635,-0.05292 0.04233,-0.05292 0.08467,-0.05292 0.22225,-0.264583 0.550333,-0.529167 0.328084,-0.275166 0.6985,-0.486833 0.370417,-0.22225 0.762,-0.359833 0.402167,-0.137584 0.751417,-0.137584 0.105833,0 0.232833,0.05292 0.127,0.05292 0.243417,0.137583 0.127,0.07408 0.22225,0.179917 0.09525,0.105833 0.137583,0.201083 l -0.04233,0.09525 0.0635,0.508 q 0.0635,0.02117 0.04233,0.09525 l -0.116416,0.391584 q 0.04233,0.01058 0.04233,0.04233 0,0.03175 -0.01058,0.07408 -0.01058,0.04233 -0.02117,0.08467 -0.01058,0.04233 0.01058,0.0635 l -0.15875,0.582083 -0.09525,0.08467 q -0.127,0.15875 -0.254,0.402167 -0.127,0.243416 -0.254,0.518583 -0.116416,0.264583 -0.243416,0.529167 -0.116417,0.264583 -0.22225,0.455083 -0.02117,0.02117 -0.0635,0.04233 -0.04233,0.02117 -0.0635,0.01058 -0.02117,0.105833 -0.05292,0.211666 -0.03175,0.105834 -0.08467,0.1905 0.04233,-0.07408 0.127,-0.1905 0.08467,-0.116416 0.179917,-0.232833 0.09525,-0.127 0.1905,-0.22225 0.09525,-0.105833 0.179917,-0.137583 v 0.01058 q 0.264583,-0.306917 0.497416,-0.635 0.243417,-0.338667 0.550334,-0.60325 0.02117,0 0.148166,-0.116417 0.137584,-0.116416 0.328084,-0.28575 0.1905,-0.179916 0.41275,-0.381 0.22225,-0.211666 0.43392,-0.391583 0.21166,-0.1905 0.381,-0.328083 0.17991,-0.137584 0.27516,-0.169334 0,-0.02117 0.0423,-0.0635 0.0529,-0.05292 0.11641,-0.105833 0.0635,-0.05292 0.127,-0.09525 0.0635,-0.04233 0.0847,-0.0635 l 0.10583,-0.01058 q 0.21167,-0.254 0.51859,-0.41275 0.30691,-0.169334 0.61383,-0.264584 0.1905,0.0635 0.40217,0.148167 0.22225,0.07408 0.33866,0.264583 0.0318,0.05292 -0.0212,0.07408 l 0.0423,0.232833 q -0.0106,0.03175 -0.0423,0.07408 -0.0212,0.04233 -0.0635,0.04233 l 0.0529,0.47625 0.0529,0.05292 q -0.0212,0.275167 -0.10583,0.60325 -0.0847,0.328084 -0.13759,0.60325 0.0318,-0.03175 0.16934,-0.137583 0.13758,-0.105833 0.28575,-0.22225 0.15875,-0.127 0.28575,-0.22225 0.13758,-0.09525 0.15875,-0.09525 l 0.0847,0.09525 0.1905,-0.201083 0.53975,-0.3175 0.10584,-0.08467 0.0847,0.01058 q 0.0635,-0.04233 0.17992,-0.105833 0.127,-0.07408 0.254,-0.137583 0.13758,-0.0635 0.26458,-0.105834 0.13758,-0.05292 0.22225,-0.05292 h 0.0847 l 0.49741,0.34925 0.0318,0.433916 q 0,0.433917 -0.13758,0.836084 -0.127,0.391583 -0.27517,0.79375 0.0212,0 0.0106,0.05292 -0.0106,0.04233 -0.0423,0.105834 -0.0212,0.0635 -0.0529,0.127 -0.0318,0.0635 -0.0529,0.09525 L 106.57,79.37372 q 0.0318,0.03175 0.0212,0.07408 -0.0106,0.03175 -0.0423,0.07408 -0.0212,0.03175 -0.0529,0.0635 -0.0212,0.03175 0,0.0635 -0.0317,0.05292 -0.0847,0.169333 -0.0529,0.105834 -0.10584,0.211667 -0.0529,0.105833 -0.10583,0.1905 -0.0529,0.08467 -0.0847,0.09525 -0.0106,0.0635 -0.0635,0.201083 -0.0423,0.127 -0.10583,0.275167 -0.0635,0.137583 -0.13758,0.254 -0.0635,0.105833 -0.127,0.127 -0.0741,0.148167 -0.13758,0.328083 -0.0529,0.169334 -0.10584,0.359834 -0.0423,0.179916 -0.0952,0.359833 -0.0529,0.179917 -0.11641,0.328083 l -0.10584,0.0635 q -0.0635,0.359834 -0.16933,0.677334 -0.0952,0.328083 -0.1905,0.656166 -0.0952,0.328083 -0.16933,0.66675 -0.0741,0.338667 -0.0741,0.719667 l -0.41275,-0.02117 q -0.0741,0.05292 -0.1905,0.105833 -0.11641,0.0635 -0.21166,0.0635 -0.16934,0 -0.22225,-0.148166 -0.0423,-0.148167 -0.0423,-0.275167 0,-0.22225 0.10584,-0.53975 0.10583,-0.306917 0.26458,-0.677333 0.15875,-0.359833 0.34925,-0.740833 0.20108,-0.391584 0.381,-0.772584 0.1905,-0.381 0.33867,-0.73025 0.15875,-0.34925 0.23283,-0.624416 0.0741,-0.04233 0.22225,-0.328084 0.15875,-0.296333 0.32808,-0.656166 0.17992,-0.370417 0.34925,-0.719667 0.17992,-0.34925 0.29633,-0.497417 -0.0106,-0.01058 0.0106,-0.07408 0.0212,-0.0635 0.0423,-0.127 0.0318,-0.0635 0.0529,-0.116417 0.0318,-0.0635 0.0423,-0.07408 0.0423,-0.07408 0.0741,-0.201083 0.0318,-0.137584 0.0423,-0.275167 0.0212,-0.148167 0.0212,-0.28575 0.0106,-0.137583 0.0106,-0.232833 0,-0.137584 -0.0106,-0.264584 0,-0.137583 -0.0423,-0.264583 -0.45508,0.09525 -0.84666,0.328083 -0.381,0.232834 -0.74084,0.550334 -0.34925,0.306916 -0.67733,0.656166 -0.3175,0.338667 -0.64558,0.656167 -0.3175,0.3175 -0.65617,0.560917 -0.33867,0.243416 -0.70908,0.338666 -0.0529,-0.01058 -0.0741,-0.05292 -0.0106,-0.04233 -0.0106,-0.08467 0,-0.127 0.10583,-0.328083 0.10584,-0.201084 0.26459,-0.455084 0.15875,-0.264583 0.34925,-0.560916 0.1905,-0.296334 0.34925,-0.613834 0.15875,-0.328083 0.26458,-0.66675 0.10583,-0.338666 0.10583,-0.66675 0,-0.1905 -0.0635,-0.381 -0.0529,-0.201083 -0.21166,-0.3175 -0.28575,0.15875 -0.53975,0.359834 -0.254,0.201083 -0.508,0.41275 -0.254,0.211666 -0.51859,0.402166 -0.26458,0.1905 -0.5715,0.3175 0,0.03175 -0.0529,0.05292 -0.3175,0.275167 -0.58209,0.592667 -0.26458,0.306916 -0.5715,0.582083 h 0.0106 q -0.285755,0.296333 -0.645588,0.762 -0.359833,0.465667 -0.751417,1.016 -0.391583,0.53975 -0.79375,1.11125 -0.402166,0.5715 -0.762,1.068917 -0.359833,0.497416 -0.66675,0.867833 -0.296333,0.381 -0.486833,0.529166 0.01058,0.03175 -0.02117,0.05292 -0.03175,0.03175 -0.08467,0.04233 -0.05292,0.01058 -0.105834,0.01058 -0.04233,0.01058 -0.04233,0.01058 -0.15875,0 -0.275167,-0.07408 -0.116416,-0.0635 -0.116416,-0.243417 0,-0.169333 0.243416,-0.635 0.254,-0.465666 0.635,-1.11125 0.391584,-0.645583 0.846667,-1.418166 0.465667,-0.772584 0.889,-1.534584 0.423333,-0.772583 0.740833,-1.481666 0.328084,-0.719667 0.4445,-1.259417 l -0.116416,-0.391583 q -0.03175,-0.03175 -0.105834,-0.0635 -0.0635,-0.03175 -0.137583,-0.0635 -0.07408,-0.03175 -0.148167,-0.05292 -0.07408,-0.02117 -0.105833,-0.02117 -0.41275,0 -0.79375,0.254 -0.370417,0.243417 -0.687917,0.613834 -0.306916,0.370416 -0.53975,0.804333 -0.232833,0.423333 -0.370416,0.783167 z m 3.77825,-2.413 q -0.02117,0.02117 -0.04233,0.02117 0,0.03175 0.02117,0.03175 0.01058,0 0.01058,-0.02117 0.01058,-0.02117 0.01058,-0.03175 z"
         style="font-style:normal;font-variant:normal;font-weight:normal;font-stretch:normal;font-size:10.58333302px;line-height:1.25;font-family:Billenia;-inkscape-font-specification:'Billenia, Normal';font-variant-ligatures:normal;font-variant-caps:normal;font-variant-numeric:normal;font-feature-settings:normal;text-align:start;letter-spacing:0px;word-spacing:0px;writing-mode:lr-tb;text-anchor:start;fill:#000000;fill-opacity:1;stroke:none;stroke-width:0.26458332"
         id="path82"
         inkscape:connector-curvature="0" />
      <path
         id="path68"
         transform="matrix(0.26458333,0,0,0.26458333,91.473485,71.689679)"
         d="m 59.015625,22.017578 -3.234375,9.158203 a 4.5525173,4.9027109 19.456931 0 0 5.359375,-3.257812 4.5525173,4.9027109 19.456931 0 0 -2.125,-5.900391 z m -0.212891,2.023438 a 2.4391733,2.7170987 12.76437 0 1 1.134766,3.279296 2.4391733,2.7170987 12.76437 0 1 -2.863281,1.810547 z"
         style="fill:#552200;stroke:#000000;stroke-width:0.64207399"
         inkscape:connector-curvature="0" />
      <path
         inkscape:connector-curvature="0"
         style="fill:#552200;stroke:#000000;stroke-width:0.16988207"
         d="m 101.86317,76.416147 -1.85181,1.781736 a 1.2045202,1.2971756 46.099385 0 1 0.19794,-1.647585 1.2045202,1.2971756 46.099385 0 1 1.65387,-0.134151 z m -0.46408,0.272788 a 0.64536459,0.71889902 52.791946 0 0 -0.91412,0.0857 0.64536459,0.71889902 52.791946 0 0 -0.12262,0.887906 z"
         id="path76" />
      <ellipse
         ry="0.32601926"
         rx="0.48902893"
         cy="78.712471"
         cx="101.67789"
         id="path78"
         style="fill:#552200;stroke:#000000;stroke-width:0.26458332" />
      <ellipse
         style="fill:#552200;stroke:#000000;stroke-width:0.26458332"
         id="ellipse80"
         cx="104.32951"
         cy="79.625328"
         rx="0.48902893"
         ry="0.32601926" />
    </g>
    <path
       style="fill:#000000;stroke:none;stroke-width:0.26458332px;stroke-linecap:butt;stroke-linejoin:miter;stroke-opacity:1"
       d="m 102.78485,74.593678 c 0,0 0.27663,-0.153687 0.15368,-0.58401 -0.12295,-0.430324 -0.95286,-0.922122 -0.95286,-0.922122 0,0 0.9836,0.245899 1.13729,0.58401 0.15368,0.338112 0.2459,0.553273 0.2459,0.553273 0,0 0.27663,-0.276636 0.27663,-0.58401 0,-0.307374 -0.2459,-0.676223 -0.2459,-0.676223 0,0 0.64549,0.584011 0.61475,0.82991 -0.0307,0.245899 -0.36885,0.737697 -0.36885,0.737697 z"
       id="path96"
       inkscape:connector-curvature="0" />
    <path
       style="fill:#000000;stroke:none;stroke-width:0.26458332"
       d="m 101.24997,79.797068 a 0.46490695,0.41932785 43.97992 0 0 -0.47531,-0.116622 l 0.60855,0.587252 a 0.46490695,0.41932785 43.97992 0 0 -0.13325,-0.470628 z"
       id="path98"
       inkscape:connector-curvature="0" />
    <path
       inkscape:connector-curvature="0"
       id="path103"
       d="m 102.03891,80.223294 a 0.46490695,0.41932785 11.649408 0 1 0.36461,0.326485 l -0.82828,-0.170772 a 0.46490695,0.41932785 11.649408 0 1 0.46368,-0.155706 z"
       style="fill:#000000;stroke:none;stroke-width:0.26458332" />
  </g>
</svg>
